<svg width="400" height="300" viewBox="0 0 400 300" fill="none" xmlns="http://www.w3.org/2000/svg">
  <rect width="400" height="300" rx="8" fill="white" stroke="#e5e7eb"/>
  <!-- Browser header -->
  <rect width="400" height="40" fill="#1a365d"/>
  <circle cx="15" cy="20" r="5" fill="#ef4444"/>
  <circle cx="35" cy="20" r="5" fill="#f59e0b"/>
  <circle cx="55" cy="20" r="5" fill="#10b981"/>
  <!-- Navigation -->
  <rect y="40" width="400" height="50" fill="white" stroke="#e5e7eb" stroke-width="1"/>
  <text x="20" y="70" font-family="Inter, sans-serif" font-size="18" font-weight="700" fill="#1a365d">Business Name</text>
  <text x="320" y="70" font-family="Inter, sans-serif" font-size="12" fill="#374151">Menu</text>
  <!-- Content -->
  <rect x="20" y="110" width="360" height="20" rx="4" fill="#e5e7eb"/>
  <rect x="20" y="140" width="240" height="16" rx="4" fill="#f3f4f6"/>
  <rect x="20" y="165" width="320" height="16" rx="4" fill="#f3f4f6"/>
  <!-- Images -->
  <rect x="20" y="195" width="80" height="60" rx="4" fill="#f8fafc" stroke="#e5e7eb"/>
  <rect x="110" y="195" width="80" height="60" rx="4" fill="#f8fafc" stroke="#e5e7eb"/>
  <rect x="200" y="195" width="80" height="60" rx="4" fill="#f8fafc" stroke="#e5e7eb"/>
  <!-- CTA Button -->
  <rect x="300" y="210" width="80" height="30" rx="6" fill="#f97316"/>
  <text x="340" y="230" font-family="Inter, sans-serif" font-size="12" font-weight="600" fill="white" text-anchor="middle">Contact</text>
</svg>
